<svg width="34" height="39" viewBox="0 0 34 39" fill="none" xmlns="http://www.w3.org/2000/svg">
<path d="M12.3005 32.5458C12.3005 32.5458 12.4299 32.719 12.6887 33.0654C12.9475 33.4118 13.0769 34.0591 13.0769 35.0072C13.0769 35.9553 12.8181 36.7758 12.3005 37.4687C11.7829 38.1615 11.1699 38.5079 10.4615 38.5079C9.75321 38.5079 9.14022 38.1615 8.6226 37.4687C8.10497 36.7758 7.84615 35.9553 7.84615 35.0072C7.84615 34.0591 8.10497 33.2386 8.6226 32.5458C9.14022 31.8529 9.75321 31.5065 10.4615 31.5065C11.1699 31.5065 11.7829 31.8529 12.3005 32.5458ZM30.6082 32.5458C30.6082 32.5458 30.7376 32.719 30.9964 33.0654C31.2552 33.4118 31.3846 34.0591 31.3846 35.0072C31.3846 35.9553 31.1258 36.7758 30.6082 37.4687C30.0905 38.1615 29.4776 38.5079 28.7692 38.5079C28.0609 38.5079 27.4479 38.1615 26.9303 37.4687C26.4127 36.7758 26.1538 35.9553 26.1538 35.0072C26.1538 34.0591 26.4127 33.2386 26.9303 32.5458C27.4479 31.8529 28.0609 31.5065 28.7692 31.5065C29.4776 31.5065 30.0905 31.8529 30.6082 32.5458ZM34 5.25108V19.254C34 19.6916 33.8876 20.079 33.6629 20.4163C33.4381 20.7536 33.1623 20.9496 32.8353 21.0043L11.5036 24.341C11.6807 25.4349 11.7692 26.0731 11.7692 26.2554C11.7692 26.5471 11.6058 27.1306 11.2788 28.0058H30.0769C30.4311 28.0058 30.7376 28.179 30.9964 28.5254C31.2552 28.8718 31.3846 29.2821 31.3846 29.7561C31.3846 30.2302 31.2552 30.6404 30.9964 30.9869C30.7376 31.3333 30.4311 31.5065 30.0769 31.5065H9.15385C8.79968 31.5065 8.49319 31.3333 8.23438 30.9869C7.97556 30.6404 7.84615 30.2302 7.84615 29.7561C7.84615 29.5556 7.90064 29.2684 8.00961 28.8946C8.11859 28.5209 8.22756 28.1927 8.33654 27.91C8.44551 27.6274 8.59195 27.2628 8.77584 26.8161C8.95973 26.3694 9.0653 26.1004 9.09255 26.0093L5.47596 3.50072H1.30769C0.953526 3.50072 0.647035 3.32751 0.388221 2.98108C0.129407 2.63466 0 2.22442 0 1.75036C0 1.27631 0.129407 0.866062 0.388221 0.519638C0.647035 0.17321 0.953526 0 1.30769 0H6.53846C6.75641 0 6.95052 0.0592575 7.12079 0.177769C7.29107 0.296284 7.42388 0.437588 7.51923 0.601685C7.61458 0.765781 7.70312 0.989136 7.78486 1.27174C7.86659 1.55436 7.92107 1.79139 7.94832 1.98283C7.97556 2.17427 8.01302 2.44321 8.0607 2.78964C8.10837 3.13607 8.13902 3.37309 8.15264 3.50072H32.6923C33.0465 3.50072 33.353 3.67393 33.6118 4.02036C33.8706 4.36678 34 4.77703 34 5.25108Z" fill="white"/>
</svg>
