<svg width="30" height="30" viewBox="0 0 30 30" fill="none" xmlns="http://www.w3.org/2000/svg">
<path d="M15 30C6.71573 30 0 23.2843 0 15C0 6.71573 6.71573 0 15 0C23.2842 0 30 6.71573 30 15C30 23.2843 23.2842 30 15 30ZM15 27C21.6275 27 27 21.6274 27 15C27 8.37258 21.6275 3 15 3C8.37257 3 3 8.37258 3 15C3 21.6274 8.37257 27 15 27ZM13.5 21H8.99999V9H13.5V6H16.5V9H18C20.0711 9 21.75 10.6789 21.75 12.75C21.75 13.5942 21.471 14.3733 21.0003 15C21.471 15.6267 21.75 16.4058 21.75 17.25C21.75 19.321 20.0711 21 18 21H16.5V24H13.5V21ZM12 16.5V18H18C18.4142 18 18.75 17.6641 18.75 17.25C18.75 16.8358 18.4142 16.5 18 16.5H12ZM12 12V13.5H18C18.4142 13.5 18.75 13.1641 18.75 12.75C18.75 12.3358 18.4142 12 18 12H12Z" fill="black"/>
</svg>
