<svg width="30" height="40" viewBox="0 0 30 40" fill="none" xmlns="http://www.w3.org/2000/svg">
<path d="M15 34.5167L23.2495 25.4768C27.8056 20.4843 27.8056 12.3897 23.2495 7.39709C18.6935 2.40451 11.3065 2.40451 6.75041 7.39709C2.1943 12.3897 2.1943 20.4843 6.75041 25.4768L15 34.5167ZM15 39.6823L4.39339 28.0597C-1.46446 21.6406 -1.46446 11.2333 4.39339 4.81428C10.2513 -1.60476 19.7486 -1.60476 25.6066 4.81428C31.4645 11.2333 31.4645 21.6406 25.6066 28.0597L15 39.6823ZM15 20.0896C16.841 20.0896 18.3333 18.4543 18.3333 16.437C18.3333 14.4197 16.841 12.7843 15 12.7843C13.159 12.7843 11.6667 14.4197 11.6667 16.437C11.6667 18.4543 13.159 20.0896 15 20.0896ZM15 23.7423C11.3181 23.7423 8.33332 20.4715 8.33332 16.437C8.33332 12.4024 11.3181 9.13165 15 9.13165C18.6818 9.13165 21.6666 12.4024 21.6666 16.437C21.6666 20.4715 18.6818 23.7423 15 23.7423Z" fill="black"/>
</svg>
