<svg width="9" height="5" viewBox="0 0 9 5" fill="none" xmlns="http://www.w3.org/2000/svg">
<mask id="path-1-inside-1_118_660" fill="white">
<path d="M0.839844 0.300003H8.83984V4.3H0.839844V0.300003Z"/>
</mask>
<path d="M0.839844 0.300003V-1.7H-1.16016V0.300003H0.839844ZM8.83984 0.300003H10.8398V-1.7H8.83984V0.300003ZM-1.16016 0.300003V1.63334H2.83984V0.300003H-1.16016ZM-1.16016 2.96667V4.3H2.83984V2.96667H-1.16016ZM10.8398 4.3V2.96667H6.83984V4.3H10.8398ZM10.8398 1.63334V0.300003H6.83984V1.63334H10.8398ZM8.83984 -1.7H6.17318V2.3H8.83984V-1.7ZM3.50651 -1.7H0.839844V2.3H3.50651V-1.7ZM0.839844 0.300003V-3.7H-3.16016V0.300003H0.839844ZM8.83984 0.300003H12.8398V-3.7H8.83984V0.300003ZM-3.16016 0.300003V1.63334H4.83984V0.300003H-3.16016ZM-3.16016 2.96667V4.3H4.83984V2.96667H-3.16016ZM12.8398 4.3V2.96667H4.83984V4.3H12.8398ZM12.8398 1.63334V0.300003H4.83984V1.63334H12.8398ZM8.83984 -3.7H6.17318V4.3H8.83984V-3.7ZM3.50651 -3.7H0.839844V4.3H3.50651V-3.7Z" fill="white" mask="url(#path-1-inside-1_118_660)"/>
</svg>
